<?xml version="1.0" encoding="UTF-8"?><svg xmlns="http://www.w3.org/2000/svg" xmlns:xlink="http://www.w3.org/1999/xlink" version="1.1" id="Layer_1" x="0px" y="0px" viewBox="0 0 52 52" xml:space="preserve"><style type="text/css">.st0{fill:#0096E6;} .st1{fill:#FFFFFF;} .st2{fill:#D0E8F9;} .st3{fill:none;stroke:#0096E6;stroke-width:2;stroke-linecap:round;stroke-linejoin:round;stroke-miterlimit:10;} .st4{fill:none;stroke:#0096E6;stroke-width:2;stroke-miterlimit:10;} .st5{fill:none;stroke:#0096E6;stroke-width:2;stroke-linecap:round;stroke-miterlimit:10;}</style><path className="st0" d="M49.36 11.069l-23-9a1.02 1.02 0 0 0-.73 0l-23 9a1 1 0 0 0-.63.93v3c0 .56.45 1 1 1h4v33c0 .56.45 1 1 1h36c.55 0 1-.44 1-1v-33h4c.55 0 1-.44 1-1v-3c0-.41-.25-.78-.64-.93zM48 13.999h-4c-.55 0-1 .45-1 1v33H9v-33c0-.55-.45-1-1-1H4v-1.31l22-8.61 22 8.61v1.31z" fill="#0096E6"/><path className="st1" fill="#FFF" d="M18 41.999h6v6h-6z"/><path className="st1" fill="#FFF" d="M18 33.999h6v6h-6z"/><path className="st1" fill="#FFF" d="M18 25.999h6v6h-6z"/><path className="st1" d="M48 12.689v1.31h-4c-.55 0-1 .45-1 1v33h-3v-29c0-.55-.45-1-1-1H13c-.55 0-1 .45-1 1v29H9v-33c0-.55-.45-1-1-1H4v-1.31l22-8.61 22 8.61z" fill="#FFF"/><path className="st2" fill="#D0E8F9" d="M26 41.999h6v6h-6z"/><path className="st2" fill="#D0E8F9" d="M26 33.999h6v6h-6z"/><path className="st2" d="M38 19.999v28h-4v-15c0-.55-.45-1-1-1h-7v-7c0-.55-.45-1-1-1h-8c-.55 0-1 .45-1 1v23h-2v-28h24z" fill="#D0E8F9"/><g><path className="st0" d="M40 18.999v30c0 .56-.45 1-1 1s-1-.44-1-1v-29H14v29c0 .56-.45 1-1 1s-1-.44-1-1v-30c0-.55.45-1 1-1h26c.55 0 1 .45 1 1z" fill="#0096E6"/></g><g><path className="st0" d="M26 40.999v8c0 .56-.45 1-1 1s-1-.44-1-1v-7h-6v7c0 .56-.45 1-1 1s-1-.44-1-1v-8c0-.55.45-1 1-1h8c.55 0 1 .45 1 1z" fill="#0096E6"/></g><g><path className="st0" d="M26 32.999v8c0 .56-.45 1-1 1s-1-.44-1-1v-7h-6v7c0 .56-.45 1-1 1s-1-.44-1-1v-8c0-.55.45-1 1-1h8c.55 0 1 .45 1 1z" fill="#0096E6"/></g><g><path className="st0" d="M26 24.999v8c0 .56-.45 1-1 1s-1-.44-1-1v-7h-6v7c0 .56-.45 1-1 1s-1-.44-1-1v-8c0-.55.45-1 1-1h8c.55 0 1 .45 1 1z" fill="#0096E6"/></g><g><path className="st0" d="M34 40.999v8c0 .56-.45 1-1 1s-1-.44-1-1v-7h-7c-.55 0-1-.44-1-1 0-.55.45-1 1-1h8c.55 0 1 .45 1 1z" fill="#0096E6"/></g><g><path className="st0" d="M34 32.999v8c0 .56-.45 1-1 1h-8c-.55 0-1-.44-1-1 0-.55.45-1 1-1h7v-6h-7c-.55 0-1-.44-1-1 0-.55.45-1 1-1h8c.55 0 1 .45 1 1z" fill="#0096E6"/></g><metadata><rdf:RDF xmlns:rdf="http://www.w3.org/1999/02/22-rdf-syntax-ns#" xmlns:rdfs="http://www.w3.org/2000/01/rdf-schema#" xmlns:dc="http://purl.org/dc/elements/1.1/"><rdf:Description about="https://iconscout.com/legal#licenses" dc:title="store,shop,real,estate" dc:description="store,shop,real,estate" dc:publisher="Iconscout" dc:date="2017-11-28" dc:format="image/svg+xml" dc:language="en"><dc:creator><rdf:Bag><rdf:li>Icon River</rdf:li></rdf:Bag></dc:creator></rdf:Description></rdf:RDF></metadata></svg>